<svg width="36" height="36" viewBox="0 0 36 36" fill="none" xmlns="http://www.w3.org/2000/svg">
<g clip-path="url(#clip0_2015_676)">
<rect width="36" height="36" rx="18" fill="url(#paint0_linear_2015_676)"/>
<path d="M23.6654 10.5724C23.6654 10.5724 25.3305 9.92316 25.1918 11.5C25.1455 12.1493 24.7292 14.4218 24.4054 16.8798L23.2953 24.1611C23.2953 24.1611 23.2029 25.2278 22.3703 25.4133C21.5377 25.5988 20.2889 24.764 20.0576 24.5785C19.8726 24.4394 16.5886 22.3524 15.4322 21.3321C15.1084 21.0538 14.7384 20.4973 15.4785 19.848L20.3351 15.2102C20.8902 14.6537 21.4452 13.3551 19.1325 14.9319L12.657 19.3378C12.657 19.3378 11.9169 19.8016 10.5294 19.3842L7.52285 18.4567C7.52285 18.4567 6.41275 17.761 8.30916 17.0653C12.9345 14.8855 18.6238 12.6594 23.6654 10.5724Z" fill="white"/>
</g>
<defs>
<linearGradient id="paint0_linear_2015_676" x1="-6.70552e-08" y1="18" x2="36" y2="18" gradientUnits="userSpaceOnUse">
<stop stop-color="#EE6F03"/>
<stop offset="1" stop-color="#FFB422"/>
</linearGradient>
<clipPath id="clip0_2015_676">
<rect width="36" height="36" rx="18" fill="white"/>
</clipPath>
</defs>
</svg>
